# xmcd
#
# Track frame offsets:
# 174
# 13579
# 24178
# 38565
# 51176
# 58748
# 71466
# 83666
# 91948
# 102470
# 112886
# 127327
# 136527
# 149802
# 159913
# 169203
# 179823
# 194158
# 205948
# 216400
# 226549
# 238025
#
# Disc length: 3369 seconds
#
#
# Revision: 3
# Processed by: cddbd v1.5.1PL2 Copyright (c) Steve Scherf et al.
# Submitted via: FreeRIP 2.70 
#
DISCID=380d2716
DTITLE=Jim Reeves - Christmas Songbook
DYEAR=2003
DGENRE=Country
TTITLE0=Silver Bells
TTITLE1=Scarlet Ribbon
TTITLE2=Blue Christmas
TTITLE3=An Old Christmas Card
TTITLE4=Teach Me How To Pray
TTITLE5=C.H.R.I.S.T.M.A.S.
TTITLE6=Precious Memories
TTITLE7=Jingle Bells
TTITLE8=The Merry Christmas Polka
TTITLE9=In The Garden
TTITLE10=Silent Night
TTITLE11=O' Come, All Ye Faithful
TTITLE12=It Is No Secret
TTITLE13=A Beautiful Life
TTITLE14=Padre Of Old San Antone
TTITLE15=Senor Santa Clause
TTITLE16=Mary's Boy Child
TTITLE17=May The Good Lord Bless And Keep You
TTITLE18=O' Little Town Of Bethlehem
TTITLE19=The Flowers, The Sunset, The Trees
TTITLE20=An Evening Prayer
TTITLE21=White Christmas
EXTD=ID3G:   2
EXTT0=
EXTT1=
EXTT2=
EXTT3=
EXTT4=
EXTT5=
EXTT6=
EXTT7=
EXTT8=
EXTT9=
EXTT10=
EXTT11=
EXTT12=
EXTT13=
EXTT14=
EXTT15=
EXTT16=
EXTT17=
EXTT18=
EXTT19=
EXTT20=
EXTT21=
PLAYORDER=
